<svg data-logo="logo" xmlns="http://www.w3.org/2000/svg" viewBox="0 0 41 41">
        <g style="opacity: 1;" id="logogram" transform="translate(0, 0) rotate(0)"><path d="M40.207 22.1241H33.0426C26.7844 22.1241 21.7112 27.1973 21.7112 33.4555V40.6199C31.5885 39.8876 39.4747 32.0014 40.207 22.1241Z" fill="#45A423"></path><path d="M18.7029 40.6199V33.4555C18.7029 27.1973 13.6296 22.1241 7.37148 22.1241H0.207031C0.939394 32.0014 8.8256 39.8876 18.7029 40.6199Z" fill="#45A423"></path><path d="M40.207 19.1158C39.4747 9.23851 31.5885 1.3523 21.7112 0.619934V7.78438C21.7112 14.0425 26.7844 19.1158 33.0426 19.1158H40.207Z" fill="#45A423"></path><path d="M18.7029 0.619934C8.8256 1.3523 0.939394 9.23851 0.207031 19.1158H7.37148C13.6296 19.1158 18.7029 14.0425 18.7029 7.78438V0.619934Z" fill="#45A423"></path><path d="M13.7722 20.6197C16.5524 19.2306 18.8182 16.9648 20.2073 14.1846C21.5963 16.9648 23.8621 19.2306 26.6423 20.6197C23.8621 22.0087 21.5963 24.2745 20.2073 27.0547C18.8182 24.2745 16.5524 22.0087 13.7722 20.6197Z" fill="#8BDB85"></path></g>
        <g style="opacity: 1;" id="logotype" transform="translate(41, 20.5)"></g>
        
      </svg>